<?xml version="1.0" encoding="UTF-8"?>
<svg id="Calque_1" xmlns="http://www.w3.org/2000/svg" xmlns:xlink="http://www.w3.org/1999/xlink" viewBox="0 0 369.92 65.9">
  <defs>
    <style>
      .cls-1 {
        fill: url(#Dégradé_sans_nom_23);
      }

      .cls-2 {
        fill: url(#Dégradé_sans_nom_23-5);
      }

      .cls-3 {
        fill: url(#Dégradé_sans_nom_23-3);
      }

      .cls-4 {
        fill: url(#Dégradé_sans_nom_23-6);
      }

      .cls-5 {
        fill: url(#Dégradé_sans_nom_23-7);
      }

      .cls-6 {
        fill: url(#Dégradé_sans_nom_23-2);
      }

      .cls-7 {
        fill: url(#Dégradé_sans_nom_23-4);
      }

      .cls-8 {
        fill: #2458fa;
      }
    </style>
    <linearGradient id="Dégradé_sans_nom_23" data-name="Dégradé sans nom 23" x1="162.65" y1="32.69" x2="170.48" y2="32.69" gradientUnits="userSpaceOnUse">
      <stop offset="0" stop-color="#215afb"/>
      <stop offset=".21" stop-color="#2063f5"/>
      <stop offset=".56" stop-color="#1f7ce8"/>
      <stop offset=".9" stop-color="#1e9cd7"/>
    </linearGradient>
    <linearGradient id="Dégradé_sans_nom_23-2" data-name="Dégradé sans nom 23" x1="194.44" y1="45.24" x2="201.08" y2="45.24" xlink:href="#Dégradé_sans_nom_23"/>
    <linearGradient id="Dégradé_sans_nom_23-3" data-name="Dégradé sans nom 23" x1="193.61" y1="19.36" x2="199.49" y2="19.36" xlink:href="#Dégradé_sans_nom_23"/>
    <linearGradient id="Dégradé_sans_nom_23-4" data-name="Dégradé sans nom 23" x1="170.11" y1="45.12" x2="176.66" y2="45.12" xlink:href="#Dégradé_sans_nom_23"/>
    <linearGradient id="Dégradé_sans_nom_23-5" data-name="Dégradé sans nom 23" x1="200.67" y1="32.77" x2="208.59" y2="32.77" xlink:href="#Dégradé_sans_nom_23"/>
    <linearGradient id="Dégradé_sans_nom_23-6" data-name="Dégradé sans nom 23" x1="171.63" y1="19.21" x2="177.56" y2="19.21" xlink:href="#Dégradé_sans_nom_23"/>
    <linearGradient id="Dégradé_sans_nom_23-7" data-name="Dégradé sans nom 23" x1="171.01" y1="32.95" x2="213.84" y2="32.95" xlink:href="#Dégradé_sans_nom_23"/>
  </defs>
  <g>
    <path class="cls-1" d="M170.48,30.96c-.06-.08-.1-.09-.19-.11l-7.65,1.47,7.65,2.22.19-3.58Z"/>
    <path class="cls-6" d="M197.19,41.77l-2.75,2.45,6.59,4.48c.05-.03.05-.13.04-.19-.08-.38-3.38-5.9-3.88-6.74Z"/>
    <path class="cls-3" d="M195.49,19.32c-.62.54-1.27,1.07-1.88,1.62-.05.22,1.23.88,1.43,1.02.2.14,1.45,1.13,1.54,1.13l.19-.11c.2-1.02,2.7-6.77,2.71-7.16,0-.12.02-.21-.11-.19l-3.88,3.69Z"/>
    <path class="cls-7" d="M175.38,42.98c-.46-.43-.9-.88-1.39-1.28-1.43,2.1-2.55,4.53-3.88,6.74l.11.11c.42-.32.87-.62,1.32-.9,1.74-1.12,3.46-2.28,5.12-3.5.01-.14-1.11-1.01-1.28-1.17Z"/>
    <path class="cls-2" d="M207.77,32.13c-2.3-.5-4.65-.8-6.97-1.21-.18.09-.12,1.6-.11,1.88,0,.26.07,1.76.19,1.81,1.39-.54,7.08-1.9,7.53-2.11.45-.21-.02-.24-.64-.38Z"/>
    <path class="cls-4" d="M174.59,22.94c.53-.39,1.08-.75,1.62-1.13.17-.12,1.36-.86,1.36-.94l-5.91-5.39c-.12.05.29.99.34,1.13.78,2.12,1.71,4.28,2.6,6.33Z"/>
    <path class="cls-5" d="M200.13,27.68h-12.39c1.32-7,3.13-15.58,4.41-22.64h21.69l-13.6-5.04h-7.23c-7.26,12.03-15.25,25.44-22,37.82,1.96.36,11.2,0,12.02.19-1.33,8.43-3.71,17.08-5.24,25.61-.38,1.96-.75,3.11,0,1.58,8.03-12.12,14.93-24.98,22.45-37.4l-.11-.11Z"/>
  </g>
  <g>
    <path class="cls-8" d="M0,54.77V11.38h31.67v6.76H8.06v36.63H0ZM7.38,38.16v-6.82h21.63v6.82H7.38Z"/>
    <path class="cls-8" d="M38.74,54.77V8.78h7.75v45.99h-7.75Z"/>
    <path class="cls-8" d="M66.63,55.21c-2.48,0-4.65-.42-6.51-1.27-1.86-.85-3.3-2.02-4.31-3.53-1.01-1.51-1.52-3.21-1.52-5.11s.44-3.53,1.33-5.02c.89-1.49,2.34-2.67,4.37-3.53,2.02-.87,4.71-1.3,8.06-1.3h9.61v5.14h-9.05c-2.65,0-4.42.42-5.33,1.27-.91.85-1.36,1.89-1.36,3.13,0,1.41.56,2.52,1.67,3.35,1.12.83,2.67,1.24,4.65,1.24s3.6-.43,5.11-1.3c1.51-.87,2.59-2.15,3.25-3.84l1.3,4.65c-.74,1.94-2.08,3.45-4,4.52-1.92,1.08-4.35,1.61-7.28,1.61ZM77.05,54.77v-6.69l-.43-1.43v-11.71c0-2.27-.68-4.04-2.05-5.3-1.36-1.26-3.43-1.89-6.2-1.89-1.86,0-3.69.29-5.49.87-1.8.58-3.32,1.38-4.56,2.42l-3.04-5.64c1.78-1.36,3.89-2.39,6.35-3.07,2.46-.68,5.01-1.02,7.66-1.02,4.79,0,8.5,1.15,11.13,3.44,2.62,2.29,3.94,5.84,3.94,10.63v19.4h-7.31Z"/>
    <path class="cls-8" d="M104.51,55.21c-2.77,0-5.42-.36-7.97-1.08-2.54-.72-4.56-1.6-6.04-2.63l2.98-5.89c1.49.95,3.26,1.74,5.33,2.36,2.07.62,4.13.93,6.2.93,2.44,0,4.21-.33,5.3-.99s1.64-1.55,1.64-2.67c0-.91-.37-1.6-1.12-2.08-.74-.47-1.72-.84-2.91-1.08-1.2-.25-2.53-.47-4-.68-1.47-.21-2.93-.49-4.4-.84-1.47-.35-2.8-.87-4-1.55-1.2-.68-2.17-1.6-2.91-2.76-.74-1.16-1.12-2.69-1.12-4.59,0-2.11.6-3.94,1.8-5.49,1.2-1.55,2.88-2.75,5.05-3.6,2.17-.85,4.74-1.27,7.72-1.27,2.23,0,4.48.25,6.76.74,2.27.5,4.15,1.2,5.64,2.11l-2.98,5.89c-1.57-.95-3.15-1.6-4.74-1.95-1.59-.35-3.17-.53-4.74-.53-2.36,0-4.1.35-5.24,1.05-1.14.7-1.71,1.59-1.71,2.67,0,.99.37,1.74,1.12,2.23.74.5,1.71.89,2.91,1.18,1.2.29,2.53.53,4,.71,1.47.19,2.92.46,4.37.84,1.45.37,2.78.88,4,1.52,1.22.64,2.2,1.54,2.94,2.7.74,1.16,1.12,2.67,1.12,4.53,0,2.07-.61,3.86-1.83,5.39-1.22,1.53-2.94,2.72-5.18,3.56-2.23.85-4.9,1.27-8,1.27Z"/>
    <path class="cls-8" d="M126.2,54.77V8.78h7.75v21.82l-1.67-2.73c1.16-2.11,2.84-3.73,5.05-4.87,2.21-1.14,4.76-1.71,7.66-1.71,2.64,0,5.01.52,7.1,1.55,2.09,1.03,3.73,2.61,4.93,4.74,1.2,2.13,1.8,4.87,1.8,8.21v18.97h-7.75v-17.98c0-2.93-.69-5.12-2.08-6.57-1.38-1.45-3.32-2.17-5.8-2.17-1.82,0-3.43.37-4.83,1.12-1.41.74-2.49,1.85-3.25,3.32s-1.15,3.32-1.15,5.55v16.74h-7.75Z"/>
  </g>
  <g>
    <path class="cls-8" d="M217.69,54.77V11.38h17.79c5.79,0,10.32,1.36,13.61,4.09s4.93,6.51,4.93,11.34c0,3.18-.74,5.92-2.23,8.21-1.49,2.29-3.61,4.05-6.35,5.27-2.75,1.22-6.04,1.83-9.89,1.83h-13.39l3.6-3.66v16.3h-8.06ZM225.75,39.34l-3.6-3.84h13.02c3.55,0,6.23-.76,8.03-2.29,1.8-1.53,2.7-3.66,2.7-6.38s-.9-4.9-2.7-6.38c-1.8-1.49-4.47-2.23-8.03-2.23h-13.02l3.6-3.97v25.1ZM246.08,54.77l-10.97-15.74h8.62l11.03,15.74h-8.68Z"/>
    <path class="cls-8" d="M277.81,55.21c-3.68,0-6.89-.73-9.64-2.2-2.75-1.47-4.88-3.48-6.38-6.04-1.51-2.56-2.26-5.48-2.26-8.74s.73-6.23,2.2-8.77c1.47-2.54,3.49-4.54,6.08-5.98,2.58-1.45,5.53-2.17,8.83-2.17s6.09.7,8.62,2.11c2.52,1.41,4.5,3.39,5.95,5.95s2.17,5.58,2.17,9.05c0,.33-.01.7-.03,1.12-.02.41-.05.81-.09,1.18h-27.58v-5.14h23.49l-3.04,1.61c.04-1.9-.35-3.57-1.18-5.02-.83-1.45-1.95-2.58-3.38-3.41-1.42-.83-3.07-1.24-4.93-1.24s-3.56.41-4.99,1.24c-1.43.83-2.54,1.97-3.35,3.44s-1.21,3.19-1.21,5.18v1.24c0,1.98.45,3.74,1.36,5.27.91,1.53,2.19,2.71,3.84,3.53,1.65.83,3.55,1.24,5.7,1.24,1.86,0,3.53-.29,5.02-.87,1.49-.58,2.81-1.49,3.97-2.73l4.15,4.77c-1.49,1.74-3.36,3.07-5.61,4-2.25.93-4.83,1.4-7.72,1.4Z"/>
    <path class="cls-8" d="M309.86,55.21c-2.48,0-4.65-.42-6.51-1.27-1.86-.85-3.3-2.02-4.31-3.53-1.01-1.51-1.52-3.21-1.52-5.11s.44-3.53,1.33-5.02c.89-1.49,2.34-2.67,4.37-3.53,2.02-.87,4.71-1.3,8.06-1.3h9.61v5.14h-9.05c-2.65,0-4.42.42-5.33,1.27-.91.85-1.36,1.89-1.36,3.13,0,1.41.56,2.52,1.67,3.35,1.12.83,2.67,1.24,4.65,1.24s3.6-.43,5.11-1.3c1.51-.87,2.59-2.15,3.25-3.84l1.3,4.65c-.74,1.94-2.08,3.45-4,4.52-1.92,1.08-4.35,1.61-7.28,1.61ZM320.27,54.77v-6.69l-.43-1.43v-11.71c0-2.27-.68-4.04-2.05-5.3-1.36-1.26-3.43-1.89-6.2-1.89-1.86,0-3.69.29-5.49.87-1.8.58-3.32,1.38-4.56,2.42l-3.04-5.64c1.78-1.36,3.89-2.39,6.35-3.07,2.46-.68,5.01-1.02,7.66-1.02,4.79,0,8.5,1.15,11.13,3.44,2.62,2.29,3.94,5.84,3.94,10.63v19.4h-7.31Z"/>
    <path class="cls-8" d="M351.57,55.21c-3.18,0-6.04-.71-8.58-2.14-2.54-1.43-4.54-3.4-5.98-5.92-1.45-2.52-2.17-5.5-2.17-8.93s.72-6.4,2.17-8.93c1.45-2.52,3.44-4.48,5.98-5.89,2.54-1.4,5.4-2.11,8.58-2.11,2.77,0,5.25.61,7.44,1.83s3.93,3.07,5.21,5.55c1.28,2.48,1.92,5.66,1.92,9.55s-.62,7.01-1.86,9.51c-1.24,2.5-2.96,4.37-5.14,5.61-2.19,1.24-4.71,1.86-7.56,1.86ZM352.5,48.57c1.86,0,3.52-.41,4.99-1.24,1.47-.83,2.64-2.02,3.53-3.6.89-1.57,1.33-3.41,1.33-5.52s-.45-4-1.33-5.55c-.89-1.55-2.07-2.74-3.53-3.56-1.47-.83-3.13-1.24-4.99-1.24s-3.52.41-4.99,1.24c-1.47.83-2.64,2.01-3.53,3.56-.89,1.55-1.33,3.4-1.33,5.55s.44,3.95,1.33,5.52c.89,1.57,2.07,2.77,3.53,3.6,1.47.83,3.13,1.24,4.99,1.24ZM362.55,54.77v-7.81l.31-8.8-.62-8.8V8.78h7.69v45.99h-7.38Z"/>
  </g>
</svg>